<?xml version="1.0" encoding="utf-8"?>
<!-- Generator: Adobe Illustrator 18.1.1, SVG Export Plug-In . SVG Version: 6.00 Build 0)  -->
<svg version="1.1" id="Layer_1" xmlns="http://www.w3.org/2000/svg" xmlns:xlink="http://www.w3.org/1999/xlink" x="0px" y="0px"
	 width="175px" height="40px" viewBox="-62 106 175 40" enable-background="new -62 106 175 40" xml:space="preserve">
<g>
	<path fill="#FFFFFF" d="M-39.6,107.6c-0.5,0-6.3,0-6.3,0c-0.5,0-0.9,0-1.2,0.4c-0.4,0.4-10.5,6-11.4,6.5c-0.7,0.5-0.7,0.9-1.1,1.6
		c-0.2,0.5-1.8,4.6-2.3,6.3c-0.2,0.5-0.2,0.9,0,1.1c0.4,0.4,0.7,0.2,1.2,0c0.4-0.2,5.8-3.2,7-3.9c0.7-0.4,0.4,0,0.2,0.7
		c0,0.2-5.6,14.4-5.8,15.2c-0.2,0.7,0.2,1.2,0.9,1.2c0.7,0,7.5,0,8.2,0c0.5,0,0.9-0.2,1.1-0.7c0.2-0.4,10-25.9,10.3-27
		C-38.4,108-39.1,107.8-39.6,107.6z M-9.3,128.4c-2.6,0-19.3,0-20.3,0c-0.2,0-0.4,0.2,0-0.7c0.4-0.9,1.4-1.6,4.4-1.9
		c6.3-0.7,12.8-1.1,15.4-1.6c3.3-0.5,7.9-2.3,9.8-6.8c1.2-2.8,1.2-5.6-1.4-7.7c-1.2-1.1-3.2-1.8-5.4-1.8c-5.6,0-16.1,0-17.3,0
		s-4.6,0.2-7.5,2.8c-2.1,2.1-3,4.7-3,4.9s-0.2,1.1,0.9,1.1c1.4,0,7.9,0,8.9,0c0.7,0,1.1-0.2,1.2-0.9c0.2-0.5,0.5-0.9,1.8-0.9
		c1.2,0,7.9,0,9.5,0c0.5,0,1.1,0,1.1,0.5c0,1.2-1.6,1.6-3,1.8c-1.2,0.2-10,0.9-15.2,1.6c-4.9,0.5-8.6,1.9-11,7
		c-1.6,3.3-3.2,7.9-3.5,8.8c-0.7,1.6-0.5,1.9,1.1,1.9s30.7,0,31.5,0s1.1,0,1.6-1.1c0.4-1.1,1.9-4.9,2.3-5.8c0-0.2,0.2-0.7-0.2-1.1
		C-8.4,128.4-8.8,128.4-9.3,128.4z M34.3,127.2c-1.2,0-4.9,0-5.6,0c-0.5,0-0.5,0-0.4-0.5c0.4-0.9,6.3-16.5,6.8-17.5s0-1.6-1.2-1.6
		c-1.4,0-5.1,0-6.1,0c-0.7,0-0.9,0.2-2.1,0.9c-0.5,0.4-6.8,3.9-13,7.2c-5.1,3-11,6.3-12.1,7c-3,2.1-4,4.7-4.4,5.8
		c-0.9,2.1-1.6,4.2-2.3,6.1c-0.4,1.1-0.5,1.8,1.1,1.8c2.3,0,17.5,0,18,0c0.5,0,0.5,0,0.4,0.7c-0.4,0.9-0.7,1.9-0.9,2.5
		c-0.4,1.1-0.5,1.8,1.2,1.8c1.9,0,6.3,0,7.2,0s1.4,0,1.9-1.2c0.5-1.2,1.1-2.6,1.2-3.2c0.2-0.5,0.4-0.5,1.2-0.5c0.9,0,4.7,0,5.4,0
		s1.1,0,1.6-1.2c0.5-1.4,1.9-5.1,2.5-6.1C35.6,127.9,35.6,127.2,34.3,127.2z M20,120.6c-0.4,1.1-1.8,4.7-2.3,5.8
		c-0.4,0.9-0.5,0.9-1.1,0.9s-7.4,0-8.8,0c-0.7,0-0.4-0.2,0.5-0.7c1.2-0.7,10-5.8,10.7-6.1C20.3,119.9,20.3,119.7,20,120.6z
		 M47.8,131.6c-0.7-0.2-2.5-0.7-3.7-1.1c-0.2,0-0.5-0.2-0.5-0.2s-0.4-0.2,0.2-0.2c0.4,0,1.9,0,2.5,0c0.5,0,0.9,0,1.1,0.4
		c0.2,0.2,0.4,0.2,0.9,0.2c0.4,0,0.4,0,1.2,0c0.9,0,0.9-0.2,1.2-0.9c0-0.2,0.2-0.9,0-1.4c0-0.2-0.2-1.1-2.8-1.1c-1.1,0-3,0-5.3,0
		c-1.9,0-2.8,0.9-3.2,1.6c-0.2,0.5-0.4,1.1-0.5,1.4c-0.2,0.7,0.2,1.4,0.9,1.6s2.3,0.7,4.2,1.2c0.5,0.2,0.7,0.2,0.9,0.2
		c0.4,0,0.4,0.2,0,0.2c-0.5,0-7.4,0-8.1,0c-0.5,0-0.9,0-1.2,0.7c0,0.2-0.4,0.7-0.4,1.1c-0.2,0.5,0,0.9,0.7,0.9c0.9,0,6.8,0,9.5,0
		c2.5,0,3-1.6,3.3-2.8C49.4,132.7,48.9,132,47.8,131.6z M64.3,127.7c-0.4-0.4-1.1-0.4-1.6-0.4c-0.7,0-7.2,0-8.1,0
		c-0.7,0-0.9,0-1.2,1.1c-0.2,0.4-4.6,11.7-4.7,12.4c-0.2,0.5,0,0.9,0.5,0.9c0.4,0,1.2,0,1.9,0c0.5,0,0.5,0,1.1-1.1
		c0.2-0.5,1.1-2.8,1.2-3.5c0.2-0.7,0.4-0.5,1.1-0.5c0.9,0,3.3,0,5.3,0s2.6-1.2,3-2.3c0.2-0.5,1.1-2.5,1.8-4.6
		C65.2,128.6,64.7,127.9,64.3,127.7z M61,130.4c-0.2,0.4-0.5,1.8-1.1,2.8c-0.4,0.7-0.5,0.7-1.2,0.7c-0.9,0-2.5,0-3,0
		c-0.4,0-0.7,0-0.5-0.5c0.2-0.5,0.9-2.1,1.1-2.6s0.4-0.5,0.9-0.5c0.7,0,2.8,0,3.3,0C61,130,61.1,130.2,61,130.4z M70.4,127.2
		c-0.4,0-1.1,0-1.6,0c-0.4,0-0.7,0-1.1,0.7c-0.2,0.4-2.5,6.5-2.8,7.4c-0.4,0.9,0.2,1.1,0.7,1.1c0.5,0,0.9,0,1.6,0
		c0.5,0,0.7,0,1.1-0.9c0.2-0.4,2.6-6.7,2.8-7.4C71.5,127.6,70.8,127.2,70.4,127.2z M86.9,122.1c-0.5,0-1.6,0-2.3,0
		c-0.4,0-0.7,0.4-0.7,0.7c-0.2,0.5-1.4,3.7-1.6,4.4c0,0.2-0.2,0-0.4,0c-0.7,0-3.5,0-5.6,0c-1.9,0-2.8,1.4-3,2.3
		c-0.4,1.1-0.9,2.5-1.8,4.6s1.2,2.5,1.9,2.5c0.9,0,7,0,7.9,0c0.7,0,1.1-0.2,1.2-0.5c0.2-0.4,4.9-12.4,5.1-13.1
		C87.6,122.3,87.1,122.1,86.9,122.1z M80.8,130.7c-0.2,0.5-0.9,2.3-1.1,2.8c-0.2,0.4-0.4,0.4-0.5,0.4c-0.7,0-2.6,0-3.2,0
		s-0.9,0-0.7-0.7c0.2-0.4,0.4-1.2,0.9-2.3c0.2-0.5,0.4-0.5,0.7-0.5c0.7,0,2.8,0,3.5,0C80.8,130.2,81.1,130.2,80.8,130.7z
		 M96.7,127.2c-2.3,0-5.6,0-6.3,0c-1.4,0-2.5,0.7-3.2,2.3c-0.5,1.4-1.4,3.7-1.8,4.6c-0.4,1.2-0.2,2.5,2.3,2.5c1.9,0,4.7,0,6,0
		c1.8,0,2.5-0.5,3.2-1.8c0.2-0.4,0.4-0.9-0.4-0.9c-0.7,0-6.5,0-6.8,0c-0.4,0-0.4,0-0.4-0.4c0-0.2,0-0.2,0.5-0.2c1.1,0,4.6,0,5.6,0
		c1.8-0.2,2.5-0.7,3.2-2.3C99.7,128.4,99.2,127.2,96.7,127.2z M95.1,130.4c0,0.2-0.2,0.2-0.4,0.2c-0.4,0-3.5,0-4,0
		c-0.4,0-0.5,0-0.4-0.2c0-0.2,0.2-0.2,0.7-0.2s3.5,0,3.9,0C95.3,130.2,95.3,130.2,95.1,130.4z M110.9,127.4c-0.5,0-5.4,0-7.5,0
		c-0.7,0-1.1,0-1.4,0.7c-0.2,0.7-2.6,6.7-2.8,7.4c-0.2,0.5-0.2,1.2,0.4,1.2c0.5,0,1.4,0,2.1,0c0.7,0,0.9-0.5,1.1-0.9
		c0.2-0.4,1.4-3.9,1.8-4.7c0.4-0.9,0.5-0.7,0.9-0.7s2.1,0,2.8,0c0.5,0,0.7,0,0.9,0.2c0,0.2,0.2,0.4,0.5,0.4c0.5,0,1.4,0,2.1,0
		c0.5,0,0.5-0.2,0.7-0.5c0-0.2,0.4-0.7,0.4-1.1C113,128.1,112.5,127.4,110.9,127.4z"/>
</g>
</svg>
