                <svg version="1.1" id="Layer_2" xmlns="http://www.w3.org/2000/svg" xmlns:xlink="http://www.w3.org/1999/xlink" x="0px" y="0px"
                    width="300px" height="250px" viewBox="0 0 300 250" enable-background="new 0 0 300 250" xml:space="preserve">
                <path id="e-key" fill="#f4f0de" d="M182.7,122.6c5.4-5.4,5.6-13.2,3.6-20.1l-11.4,11.4l-10.5-2.2l-2.2-10.5L173,90.2c-6.5-1.5-13.7-1.2-18.8,3.9
                    c-5.7,5.7-7.3,14-4.7,21.1l-34.1,31.8c-4,4-4,10.4,0,14.3c4,4,10.4,4,14.3,0l31.8-34.1C168.8,129.9,177,128.3,182.7,122.6z
                    M120.1,156.8c-1.4-1.4-1.4-3.7,0-5.1c1.4-1.4,3.7-1.4,5.1,0c1.4,1.4,1.4,3.7,0,5.1C123.8,158.2,121.5,158.2,120.1,156.8z"/>
                </svg>