                <svg version="1.1" xmlns="http://www.w3.org/2000/svg" xmlns:xlink="http://www.w3.org/1999/xlink" x="0px" y="0px" width="300px"
                    height="250px" viewBox="0 0 300 250" enable-background="new 0 0 300 250" xml:space="preserve">
                <g>
                    <path id="pound-final" fill="#F4F0DE" d="M132.1,93.4c-20.1,0-36.4,16.3-36.4,36.4s16.3,36.4,36.4,36.4s36.4-16.3,36.4-36.4S152.2,93.4,132.1,93.4z
                        M137.3,147.1c-1,0-2.6-0.1-4.7-0.4l-3.6-0.4c-2.1-0.2-4.1-0.3-5.8-0.3c-1.6,0-3.5,0.2-6,0.5v-3.9c1.9-0.6,3.1-1.5,3.9-2.7
                        c0.7-1.2,1.3-3.2,1.7-6.2l0.7-4.4h-5.2v-3.5h5.5l0.5-3.3c0.3-2.4,0.8-4.2,1.4-5.5c0.6-1.3,1.5-2.4,2.6-3.5c2.3-2.1,5.1-3.1,8.5-3.1
                        c3.2,0,6,1.2,8.3,3.5l-2.6,2.7c-1.6-1.3-3.2-1.9-4.8-1.9c-2.3,0-3.9,0.9-5,2.8c-0.6,1-1,2.7-1.3,4.9l-0.4,3.3h7.4v3.5h-7.7
                        l-0.3,2.8c-0.3,2.6-0.7,4.5-1.1,5.7c-0.4,1.1-1.2,2.3-2.4,3.4c0.8,0.1,2.6,0.3,5.3,0.6c2.2,0.2,4,0.4,5.3,0.4c2,0,3.9-0.5,5.5-1.6
                        l2.5,3.6C143.1,146.1,140.4,147.1,137.3,147.1z M197,140.2v-6.7c0-1.2-1-2.2-2.2-2.2h-22.3c-0.1,3.9-0.8,7.6-1.9,11.2h24.3
                        C196,142.4,197,141.4,197,140.2z M168,111.1h26.9c1.2,0,2.2-1,2.2-2.2v-6.7c0-1.2-1-2.2-2.2-2.2h-35.5
                        C162.8,103.1,165.8,106.9,168,111.1z M201.5,93.2v-6.7c0-1.2-1-2.2-2.2-2.2h-52.5c-1.2,0-2.2,1-2.2,2.2v4.8c3.1,1,6.1,2.4,8.8,4.1
                        h45.8C200.5,95.5,201.5,94.5,201.5,93.2z M199.3,146.9h-30.5c-1.9,4.1-4.5,7.9-7.7,11.2h38.2c1.2,0,2.2-1,2.2-2.2v-6.7
                        C201.5,147.9,200.5,146.9,199.3,146.9z M203.7,115.6h-33.8c1.3,3.5,2.2,7.3,2.5,11.2h31.3c1.2,0,2.2-1,2.2-2.2v-6.7
                        C205.9,116.6,204.9,115.6,203.7,115.6z"/>
                </g>
                <g>
                    <path  id="pound-start" fill="#F4F0DE" d="M132.1,93.4c-20.1,0-36.4,16.3-36.4,36.4s16.3,36.4,36.4,36.4s36.4-16.3,36.4-36.4S152.2,93.4,132.1,93.4z
                        M137.3,147.1c-1,0-2.6-0.1-4.7-0.4l-3.6-0.4c-2.1-0.2-4.1-0.3-5.8-0.3c-1.6,0-3.5,0.2-6,0.5v-3.9c1.9-0.6,3.1-1.5,3.9-2.7
                        c0.7-1.2,1.3-3.2,1.7-6.2l0.7-4.4h-5.2v-3.5h5.5l0.5-3.3c0.3-2.4,0.8-4.2,1.4-5.5c0.6-1.3,1.5-2.4,2.6-3.5c2.3-2.1,5.1-3.1,8.5-3.1
                        c3.2,0,6,1.2,8.3,3.5l-2.6,2.7c-1.6-1.3-3.2-1.9-4.8-1.9c-2.3,0-3.9,0.9-5,2.8c-0.6,1-1,2.7-1.3,4.9l-0.4,3.3h7.4v3.5h-7.7
                        l-0.3,2.8c-0.3,2.6-0.7,4.5-1.1,5.7c-0.4,1.1-1.2,2.3-2.4,3.4c0.8,0.1,2.6,0.3,5.3,0.6c2.2,0.2,4,0.4,5.3,0.4c2,0,3.9-0.5,5.5-1.6
                        l2.5,3.6C143.1,146.1,140.4,147.1,137.3,147.1z M189,140.2v-6.7c0-1.2-1-2.2-2.2-2.2h-14.3c-0.1,3.9-0.8,7.6-1.9,11.2h16.3
                        C188,142.4,189,141.4,189,140.2z M168,111.1h4.9c1.2,0,2.2-1,2.2-2.2v-6.7c0-1.2-1-2.2-2.2-2.2h-13.5
                        C162.8,103.1,165.8,106.9,168,111.1z M160.5,93.2v-6.7c0-1.2-1-2.2-2.2-2.2h-11.5c-1.2,0-2.2,1-2.2,2.2v4.8c3.1,1,6.1,2.4,8.8,4.1
                        h4.8C159.5,95.5,160.5,94.5,160.5,93.2z M175.3,146.9h-6.5c-1.9,4.1-4.5,7.9-7.7,11.2h14.2c1.2,0,2.2-1,2.2-2.2v-6.7
                        C177.5,147.9,176.5,146.9,175.3,146.9z M185.7,115.6h-15.8c1.3,3.5,2.2,7.3,2.5,11.2h13.3c1.2,0,2.2-1,2.2-2.2v-6.7
                        C187.9,116.6,186.9,115.6,185.7,115.6z"/>
                </g>
                </svg>