<?xml version="1.0" encoding="utf-8"?>
<!-- Generator: Adobe Illustrator 18.1.1, SVG Export Plug-In . SVG Version: 6.00 Build 0)  -->
<svg version="1.1" id="Layer_1" xmlns="http://www.w3.org/2000/svg" xmlns:xlink="http://www.w3.org/1999/xlink" x="0px" y="0px"
	 width="300px" height="250px" viewBox="0 0 300 250" enable-background="new 0 0 300 250" xml:space="preserve">
<path fill="#254058" d="M199.5,155.5l-40.4-71.8c-1.9-3.3-5.4-5.4-9.2-5.4c-3.8,0-7.4,2-9.2,5.4L100,156c-1.8,3.3-1.8,7.2,0.1,10.5
	c1.9,3.3,5.3,5.2,9.2,5.2h81.5c5.9,0,10.5-4.8,10.5-10.5C201.2,159.2,200.6,157.2,199.5,155.5z"/>
<path id="e-mark" fill="#F4F0DE" d="M153.7,156.8c-1.1,1-2.4,1.5-3.8,1.5c-1.5,0-2.7-0.5-3.8-1.5c-1.1-1-1.7-2.3-1.7-4
	c0-1.5,0.6-2.7,1.6-3.8c1-1,2.4-1.6,3.8-1.6c1.5,0,2.8,0.6,3.8,1.6c1,1,1.6,2.4,1.6,3.8C155.4,154.4,154.8,155.8,153.7,156.8z
	 M155,116.5l-1.6,17.9c-0.1,2.2-0.6,3.7-1.1,4.9s-1.5,1.7-2.7,1.7c-1.4,0-2.3-0.6-2.7-1.7s-0.9-2.7-1.1-5l-1.1-17.3
	c-0.2-3.4-0.3-5.8-0.3-7.2c0-2,0.6-3.6,1.6-4.6c1-1.1,2.5-1.7,4.2-1.7c2,0,3.5,0.7,4.2,2.2c0.7,1.5,1,3.5,1,6.2
	C155.4,113.3,155.3,114.9,155,116.5z"/>
</svg>
