                <svg version="1.1" xmlns="http://www.w3.org/2000/svg" xmlns:xlink="http://www.w3.org/1999/xlink" x="0px" y="0px" width="300px"
	            height="250px" viewBox="0 0 300 250" enable-background="new 0 0 300 250" xml:space="preserve">
                <g>
                    <g>
                        <path fill="#254059" d="M102.8,143.3c-6.6,0-11.9,5.3-11.9,11.9c0,6.6,5.3,11.9,11.9,11.9c6.6,0,11.9-5.3,11.9-11.9
                            C114.6,148.6,109.3,143.3,102.8,143.3z M102.8,160.2c-2.8,0-5.1-2.3-5.1-5.1c0-2.8,2.3-5.1,5.1-5.1c2.8,0,5.1,2.3,5.1,5.1
                            C107.9,157.9,105.6,160.2,102.8,160.2z"/>
                        <path fill="#254059" d="M185.1,143.3c-6.6,0-11.9,5.3-11.9,11.9c0,6.6,5.3,11.9,11.9,11.9c6.6,0,11.9-5.3,11.9-11.9
                            C197,148.6,191.7,143.3,185.1,143.3z M185.1,160.2c-2.8,0-5.1-2.3-5.1-5.1c0-2.8,2.3-5.1,5.1-5.1c2.8,0,5.1,2.3,5.1,5.1
                            C190.2,157.9,188,160.2,185.1,160.2z"/>
                        <path fill="#254059" d="M79.9,150.3c0,2.2,3.3,4.2,5,4.2c1.7,0,2.9,0,2.9,0s0-0.3,0.1-0.8c0.1-2.9,1-5.4,2.4-7.4H79.9
                            C79.9,147,79.9,148.6,79.9,150.3z"/>
                        <path fill="#254059" d="M151,100.8h-11v-3c0-0.8,0.7-1.5,1.5-1.5h7.9c0.8,0,1.5,0.7,1.5,1.5V100.8z M211.6,138.7
                            c0,0,0,10.4,0,11.7c0,1.2-3.1,4.2-5.6,4.2h-6.6c0,0,0-0.2,0-0.5c0-8.1-6.6-13.5-14.7-13.5c-8.1,0-14.7,5.3-14.7,13.4
                            c0,0.4,0,0.6,0,0.6h-52.6c0-0.2,0-0.3,0-0.5c0-8.1-6.6-13.5-14.7-13.5c-2.9,0-5.5,0.7-7.8,1.9H81.4l0.1-0.3l0.8-2.8
                            c0,0,0-2.9,0-5.9c0-2.3,2.5-4.5,4.2-5.4c2.7-1.5,20.4-4.1,23-5.8c2.6-1.7,15.4-19,22.1-18.9c0,0,17.3,0,21.6,0
                            c4.3,0,5.6,2.4,5.6,5.2c0,2.8,0,21.9,0,21.9h38.1L211.6,138.7z M88.5,132.8c0-0.4-0.3-0.6-0.6-0.6h-2.3c-0.4,0-0.6,0.3-0.6,0.6
                            v6.7c0,0.4,0.3,0.6,0.6,0.6h2.3c0.4,0,0.6-0.3,0.6-0.6V132.8z M150.1,109.9c0-1.2-1-2.1-2.1-2.1h-18.3c-1.1,0-8.8,11.6-9.6,12.7
                            c-0.7,1.1-0.5,1.9,0.7,1.9c1.2,0,27.1,0,27.1,0c1.2,0,2.1-1,2.1-2.1V109.9z M205,128.7L205,128.7C205,128.7,205,128.7,205,128.7"/>
                    </g>
                </g>
                <g>
                    <g>
                        <path fill="#254059" id="hook-start" d="M185.2,127.2c0,0-0.1-3.5-1.9-5.5c0,0-1.2-0.6-0.9-2.1c0.3-1.5,17.9-26.9,17.9-26.9l0.4,2.9h-0.1
                            c-0.6,0-1.1,0.5-1.1,1.1v7.2c0,0.6,0.5,1.1,1.1,1.1h0.4c0,0.1,0.1,0.1,0.1,0.2c0.7,0.7,0.5,1.4-0.1,2c-0.4,0.4-0.8,0.7-0.9,0.8
                            c-0.4,0.3-0.8,0.6-1.1,1c0,0,0,0,0,0l0,0c-0.9,1.1-1.5,2.4-1.5,3.9c0,3.2,2.6,5.9,5.8,6l0,0c0,0,0,0,0,0c2.3,0,4.5-1.2,5.2-3.1
                            c0.3-0.9,0.5-2.4,0.5-2.4c-0.3,1.8-2.1,3.2-4.2,3.2c-2.3,0-4.2-1.7-4.2-3.9c0,0,0-0.1,0-0.1c0-0.1,0-0.1,0-0.2c0,0,0-0.1,0-0.1
                            c0-0.3,0.1-0.6,0.2-0.9c0.5-1.5,2-2.2,2.4-2.3c0,0,0.1,0,0.1,0c0.3-0.1,0.6-0.2,0.9-0.2c0.3-0.5,0-1.4,0-1.4
                            c-0.1-0.1-0.7-0.3-1.1-0.6c0,0,0,0,0,0c-0.4-0.3-0.7-0.8-0.3-1.6c0,0,0-0.1,0.1-0.2h0.3c0.6,0,1.1-0.5,1.1-1.1v-7.2
                            c0-0.6-0.5-1.1-1.1-1.1h-0.6h0h0l-0.7-5.3c0,0,3-3.6-0.3-5.7c-3.3-2.1-6.7,1.9-9.3,4.5c-1.6,1.6-15.1,17.6-23.6,27.4
                            c-4.6,5.3-7.4,5.8-7.4,9.1c0,1.4,0,1.6,0,1.6H185.2z"/>
                    </g>
                </g>
                <g>
                    <g>
                        <path fill="#254059" id="hook-final" d="M185.2,127.2c0,0-0.1-3.5-1.9-5.5c0,0-1.2-0.6-0.9-2.1c0.3-1.5,17.9-26.9,17.9-26.9l3.4,15.9h-0.1
                            c-0.6,0-1.1,0.5-1.1,1.1v7.2c0,0.6,0.5,1.1,1.1,1.1h0.4c0,0.1,0.1,0.1,0.1,0.2c0.7,0.7,0.5,1.4-0.1,2c-0.4,0.4-0.8,0.7-0.9,0.8
                            c-0.4,0.3-0.8,0.6-1.1,1c0,0,0,0,0,0l0,0c-0.9,1.1-1.5,2.4-1.5,3.9c0,3.2,2.6,5.9,5.8,6l0,0c0,0,0,0,0,0c2.3,0,4.5-1.2,5.2-3.1
                            c0.3-0.9,0.5-2.4,0.5-2.4c-0.3,1.8-2.1,3.2-4.2,3.2c-2.3,0-4.2-1.7-4.2-3.9c0,0,0-0.1,0-0.1c0-0.1,0-0.1,0-0.2c0,0,0-0.1,0-0.1
                            c0-0.3,0.1-0.6,0.2-0.9c0.5-1.5,2-2.2,2.4-2.3c0,0,0.1,0,0.1,0c0.3-0.1,0.6-0.2,0.9-0.2c0.3-0.5,0-1.4,0-1.4
                            c-0.1-0.1-0.7-0.3-1.1-0.6c0,0,0,0,0,0c-0.4-0.3-0.7-0.8-0.3-1.6c0,0,0-0.1,0.1-0.2h0.3c0.6,0,1.1-0.5,1.1-1.1v-7.2
                            c0-0.6-0.5-1.1-1.1-1.1h-0.6h0h0l-3.7-18.3c0,0,3-3.6-0.3-5.7c-3.3-2.1-6.7,1.9-9.3,4.5c-1.6,1.6-15.1,17.6-23.6,27.4
                            c-4.6,5.3-7.4,5.8-7.4,9.1c0,1.4,0,1.6,0,1.6H185.2z"/>
                    </g>
                </g>
                </svg>