                <svg version="1.1" xmlns="http://www.w3.org/2000/svg" xmlns:xlink="http://www.w3.org/1999/xlink" x="0px" y="0px" width="300px"
                   height="250px" viewBox="0 0 300 250" enable-background="new 0 0 300 250" xml:space="preserve">
                        <g>
                            <path fill="#f4f0de" id="wheel-start" d="M150.2,85.2c-23.8,0.1-43.1,19.6-43,43.5c0.1,23.7,19.6,42.8,43.4,42.8c23.7-0.1,43-19.5,43-43.2
                                C193.5,104.3,174,85,150.2,85.2z M150.2,158.4c-16.6-0.1-30-13.5-30-30.1c0-16.7,13.4-30.2,30.2-30.1c16.7,0,30.2,13.5,30.1,30.2
                                C180.5,145,166.9,158.5,150.2,158.4z M175.7,114.5c-3.5-3.6-6.7-6.8-10.3-10.5c-2.9,5.9-5.6,11-12.1,10.4c-7.2-0.7-8-6.9-9.1-13.3
                                c-3.9,2.1-7.5,4-11.2,5.9c3.7,4.3,6.7,8.3,4.4,13.5c-2.6,5.9-8.2,5.2-14,4.8c0.5,4,1,7.7,1.5,11.6c5.3-2,10.1-3.3,13.9,0.8
                                c4.3,4.6,2,9.6-0.5,14.4c3.8,2,7.7,3.1,12.1,3.1c-0.6-5.8-0.9-11.5,5-14c6.6-2.8,10.7,1.8,14.6,6.5c3.5-3.4,6-7.3,7.4-12
                                c-6.2-0.9-12.7-1.7-13.6-9C162.8,119.3,169.1,117,175.7,114.5z M151.1,137c-4.9,0-8.8-4-8.7-8.9c0-4.9,4-8.8,8.9-8.7
                                c4.9,0,8.8,4,8.7,8.9C159.9,133.1,156,137,151.1,137z M156.2,127.9c0,2.9-2.4,5.4-5.3,5.3c-2.8,0-5.1-2.4-5.1-5.2
                                c0-2.8,2.4-5.2,5.2-5.2C153.8,122.7,156.2,125.1,156.2,127.9z"/>
                        </g>
                        <g>
                            <path fill="#f4f0de" id="wheel-final" d="M150.2,87.2c-23.8,0.1-43,19.6-43,43.5c0,24,19.2,35.5,19.2,35.5s-15.9,2.7-12.6,3.9
                                c4.7,1.7,30.9,0.5,36.2,0.5c4.1,0,28.2,1.2,32.8-0.3c7.5-2.5-8.7-3.9-8.7-3.9c11.7-7.7,19.5-21.1,19.4-36.1
                                C193.5,106.3,174,87,150.2,87.2z M150.2,160.4c-16.6-0.1-30-13.5-30-30.1c0-16.7,13.4-30.2,30.2-30.1c16.7,0,30.2,13.5,30.1,30.2
                                C180.5,147,166.9,160.5,150.2,160.4z M175.7,116.5c-3.5-3.6-6.7-6.8-10.3-10.5c-2.9,5.9-5.6,11-12.1,10.4c-7.2-0.7-8-6.9-9.1-13.3
                                c-3.9,2.1-7.5,4-11.2,5.9c3.7,4.3,6.7,8.3,4.4,13.5c-2.6,5.9-8.2,5.2-14,4.8c0.5,4,1,7.7,1.5,11.6c5.3-2,10.1-3.3,13.9,0.8
                                c4.3,4.6,2,9.6-0.5,14.4c3.8,2,7.7,3.1,12.1,3.1c-0.6-5.8-0.9-11.5,5-14c6.6-2.8,10.7,1.8,14.6,6.5c3.5-3.4,6-7.3,7.4-12
                                c-6.2-0.9-12.7-1.7-13.6-9C162.8,121.3,169.1,119,175.7,116.5z M151.1,139c-4.9,0-8.8-4-8.7-8.9c0-4.9,4-8.8,8.9-8.7
                                c4.9,0,8.8,4,8.7,8.9C159.9,135.1,156,139,151.1,139z M156.2,129.9c0,2.9-2.4,5.4-5.3,5.3c-2.8,0-5.1-2.4-5.1-5.2
                                c0-2.8,2.4-5.2,5.2-5.2C153.8,124.7,156.2,127.1,156.2,129.9z"/>
                        </g>
                    </svg>