<?xml version="1.0" encoding="utf-8"?>
<!-- Generator: Adobe Illustrator 18.1.1, SVG Export Plug-In . SVG Version: 6.00 Build 0)  -->
<svg version="1.1" id="Layer_1" xmlns="http://www.w3.org/2000/svg" xmlns:xlink="http://www.w3.org/1999/xlink" x="0px" y="0px"
	 width="74.3px" height="9.8px" viewBox="0 0 74.3 9.8" enable-background="new 0 0 74.3 9.8" xml:space="preserve">
<g>
	<g>
		<path fill="#254058" d="M0,0h5c1.2,0,2.2,0.3,2.8,0.9c0.5,0.4,0.7,1,0.7,1.7v0c0,1.1-0.6,1.7-1.4,2.1c1.2,0.4,2,1.1,2,2.4v0
			c0,1.8-1.6,2.7-4,2.7H0V0 M6.2,2.9c0-0.6-0.6-1-1.6-1H2.3V4h2.2C5.5,4,6.2,3.6,6.2,2.9L6.2,2.9z M5,5.7H2.3v2.2h2.8
			c1,0,1.7-0.3,1.7-1.1v0C6.8,6.2,6.3,5.7,5,5.7z M11.9,0H20v1.9h-5.8v2h5.1v1.9h-5.1v2.1h5.8v1.9h-8.2V0z"/>
		<path fill="#254058" d="M33.6,0h7.6v0.7h-6.8v4h6.1v0.7h-6.1v4.4h-0.8V0 M44.2,0h4.5c1.3,0,2.4,0.4,3,1c0.5,0.5,0.8,1.1,0.8,1.8v0
			c0,1.6-1.3,2.6-3.2,2.8l3.6,4.2h-1l-3.4-4.1H45v4.1h-0.8V0z M48.6,5.1c1.8,0,3.1-0.8,3.1-2.2v0c0-1.3-1.1-2.1-3.1-2.1H45v4.4H48.6
			z M55.8,0h7.7v0.7h-6.9v3.8h6.2v0.7h-6.2v3.9h6.9v0.7h-7.7V0z M66.5,0h7.7v0.7h-6.9v3.8h6.2v0.7h-6.2v3.9h6.9v0.7h-7.7V0z"/>
	</g>
	<g>
		<path fill-rule="evenodd" clip-rule="evenodd" fill="#EC1C24" d="M26.1,4.6c0,0-1.1,0.6-1.7,0.7l0.5,1.1c0.1,0.3,0.4,0.5,0.7,0.5
			c0.1,0,0.3,0,0.4-0.1L30,4.6V2.5L29.2,3L26.1,4.6z"/>
	</g>
</g>
</svg>
