<?xml version="1.0" encoding="utf-8"?>
<!-- Generator: Adobe Illustrator 18.1.1, SVG Export Plug-In . SVG Version: 6.00 Build 0)  -->
<svg version="1.1" id="Layer_1" xmlns="http://www.w3.org/2000/svg" xmlns:xlink="http://www.w3.org/1999/xlink" x="0px" y="0px"
	 width="85.4px" height="85.4px" viewBox="0 0 85.4 85.4" enable-background="new 0 0 85.4 85.4" xml:space="preserve">
<path fill="#254058" d="M82,42.7l3.4-6.8l-5.3-5.4l1.1-7.5l-6.7-3.5l-1.2-7.5l-7.5-1.2l-3.5-6.7l-7.5,1.1L49.5,0l-6.8,3.4L35.9,0
	l-5.4,5.3l-7.5-1.1l-3.5,6.7l-7.5,1.2l-1.2,7.5l-6.7,3.5l1.1,7.5L0,35.9l3.4,6.8L0,49.5l5.3,5.4l-1.1,7.5l6.7,3.5l1.2,7.5l7.5,1.2
	l3.5,6.7l7.5-1.1l5.4,5.3l6.8-3.4l6.8,3.4l5.4-5.3l7.5,1.1l3.5-6.7l7.5-1.2l1.2-7.5l6.7-3.5l-1.1-7.5l5.3-5.4L82,42.7z M42.8,80.2
	c-20.1,0-36.5-16.3-36.5-36.5c0-20.1,16.3-36.5,36.5-36.5c20.1,0,36.5,16.3,36.5,36.5C79.2,63.9,62.9,80.2,42.8,80.2z"/>
</svg>
