<?xml version="1.0" encoding="utf-8"?>
<!-- Generator: Adobe Illustrator 21.0.2, SVG Export Plug-In . SVG Version: 6.00 Build 0)  -->
<svg version="1.1" id="Layer_1" xmlns="http://www.w3.org/2000/svg" xmlns:xlink="http://www.w3.org/1999/xlink" x="0px" y="0px"
	 viewBox="0 0 208 208" style="enable-background:new 0 0 208 208;" xml:space="preserve">
<style type="text/css">
	.st0{fill:#254058;}
</style>
<polygon class="st0" points="199.7,104 208,87.5 195,74.4 197.8,56.2 181.4,47.7 178.5,29.5 160.3,26.6 151.8,10.2 133.6,13 
	120.5,0 104,8.3 87.5,0 74.4,13 56.2,10.2 47.7,26.6 29.5,29.5 26.6,47.7 10.2,56.2 13,74.4 0,87.5 8.3,104 0,120.5 13,133.6 
	10.2,151.8 26.6,160.3 29.5,178.5 47.7,181.4 56.2,197.8 74.4,195 87.5,208 104,199.7 120.5,208 133.6,195 151.8,197.8 160.3,181.4 
	178.5,178.5 181.4,160.3 197.8,151.8 195,133.6 208,120.5 "/>
</svg>
