<?xml version="1.0" encoding="utf-8"?>
<!-- Generator: Adobe Illustrator 21.0.2, SVG Export Plug-In . SVG Version: 6.00 Build 0)  -->
<svg version="1.1" xmlns="http://www.w3.org/2000/svg" xmlns:xlink="http://www.w3.org/1999/xlink" x="0px" y="0px"
	 viewBox="0 0 178 178" style="enable-background:new 0 0 178 178;" xml:space="preserve">
<style type="text/css">
	.st0{display:none;}
	.st1{display:inline;fill:#F4F0DE;}
	.st2{display:inline;}
	.st3{fill:#254058;}
	.st4{fill:#F4F0DE;}
</style>
<g id="Layer_1" class="st0">
	<circle class="st1" cx="89" cy="89.4" r="89"/>
	<polygon class="st2" points="84.7,44.3 78.9,60.4 90.6,60.4 	"/>
	<g class="st2">
		<circle class="st3" cx="89" cy="89.4" r="84.3"/>
		<path class="st4" d="M108.8,43.9c-0.7-1.1-1.2-2.1-1.6-2.8c-0.3-0.8-0.5-1.6-0.5-2.3s0.3-1.4,1-2s1.5-0.9,2.4-0.9
			c1.1,0,2,0.3,2.6,1s1.5,1.9,2.6,3.6l5.9,9.5l6.3-9.5c0.5-0.8,1-1.5,1.3-2.1c0.4-0.6,0.7-1,1.1-1.4s0.7-0.7,1.1-0.8
			c0.4-0.2,0.9-0.3,1.5-0.3c1,0,1.8,0.3,2.4,0.9c0.6,0.6,0.9,1.3,0.9,2.1c0,1.2-0.7,2.8-2.1,4.9L126,55.3l8.3,12.8
			c0.7,1.1,1.3,2.1,1.6,2.8c0.3,0.7,0.5,1.4,0.5,2.1c0,0.6-0.2,1.2-0.5,1.7s-0.7,0.9-1.3,1.2c-0.6,0.3-1.2,0.5-1.9,0.5
			s-1.4-0.2-1.9-0.5s-0.9-0.7-1.3-1.2c-0.3-0.5-0.9-1.4-1.8-2.7l-6.9-10.8l-7.3,11.2c-0.6,0.9-1,1.5-1.2,1.9s-0.5,0.7-0.9,1
			s-0.7,0.6-1.2,0.8c-0.5,0.2-1,0.3-1.6,0.3c-1,0-1.8-0.3-2.4-0.9s-0.9-1.4-0.9-2.6c0-1.3,0.6-2.9,1.9-4.8l8.8-12.8L108.8,43.9z"/>
		<path class="st4" d="M78.9,40.7c0.4-1,0.8-1.9,1.3-2.6c0.5-0.7,1-1.2,1.8-1.6c0.7-0.4,1.7-0.6,2.7-0.6c1.1,0,2,0.2,2.8,0.6
			c0.7,0.4,1.3,1,1.8,1.6c0.5,0.7,0.8,1.4,1.1,2.1c0.3,0.8,0.7,1.8,1.2,3l10.2,25.3c0.8,1.9,1.2,3.3,1.2,4.2c0,0.9-0.4,1.7-1.1,2.5
			c-0.8,0.8-1.7,1.1-2.7,1.1c-0.6,0-1.2-0.1-1.6-0.3c-0.4-0.2-0.8-0.5-1.1-0.9c-0.3-0.4-0.6-1-1-1.8c-0.3-0.8-0.6-1.5-0.9-2.1
			l-1.9-4.9H76.8l-1.9,5c-0.7,2-1.4,3.3-1.9,4s-1.4,1-2.5,1c-1,0-1.9-0.4-2.6-1.1c-0.8-0.7-1.1-1.6-1.1-2.5c0-0.5,0.1-1.1,0.3-1.7
			c0.2-0.6,0.5-1.4,0.9-2.4l10-25.4C78.2,42.6,78.5,41.8,78.9,40.7z"/>
		<path class="st4" d="M36,37.5c0.7-0.6,1.7-0.9,3-0.9h25.2c1.4,0,2.4,0.3,3.1,0.9c0.7,0.6,1,1.4,1,2.4s-0.3,1.8-1,2.4
			c-0.7,0.6-1.7,0.9-3,0.9h-8.7v28.4c0,1.6-0.4,2.9-1.1,3.6c-0.7,0.8-1.7,1.2-2.8,1.2c-1.2,0-2.1-0.4-2.9-1.2
			c-0.7-0.8-1.1-2-1.1-3.6V43.1H39c-1.4,0-2.4-0.3-3-0.9c-0.7-0.6-1-1.4-1-2.4C35,38.8,35.4,38,36,37.5z"/>
		<path class="st4" d="M16.7,109.6c0-2.8,3.2-5,7.1-5h82.4c3.9,0,7.1,2.3,7.1,5c0,2.8-3.2,5-7.1,5H23.8
			C19.9,114.6,16.7,112.3,16.7,109.6z"/>
		<path class="st4" d="M30.2,132c-3.9,0-7.1-2.3-7.1-5c0-2.8,3.2-5,7.1-5h36.3c3.9,0,7.1,2.3,7.1,5c0,2.8-3.2,5-7.1,5H30.2z"/>
		<circle class="st4" cx="89" cy="150.7" r="18.3"/>
		<path class="st4" d="M149.6,132H114c-3.9,0-7.1-2.3-7.1-5c0-2.8,3.2-5,7.1-5h35.6c3.9,0,7.1,2.3,7.1,5
			C156.6,129.8,153.5,132,149.6,132z"/>
		<path class="st4" d="M156,114.6h-33.6c-3.9,0-7.1-2.3-7.1-5c0-2.8,3.2-5,7.1-5H156c3.9,0,7.1,2.3,7.1,5
			C163.1,112.3,159.9,114.6,156,114.6z"/>
		<path class="st4" d="M163.9,97.2h-148c-2.6,0-4.7-1.5-4.7-3.2s2.1-3.2,4.7-3.2h148c2.6,0,4.7,1.5,4.7,3.2S166.5,97.2,163.9,97.2z"
			/>
	</g>
</g>
<g id="Layer_2">
	<circle class="st3" cx="89" cy="89.4" r="84.3"/>
	<path class="st4" d="M89,178c-49,0-88.8-39.8-88.8-88.8C0.2,40.2,40,0.4,89,0.4c49,0,88.8,39.8,88.8,88.8
		C177.8,138.2,138,178,89,178z M84.7,44.1l-5.8,16.1h11.7L84.7,44.1z M89,5.1C42.6,5.1,4.9,42.8,4.9,89.2s37.7,84.1,84.1,84.1
		s84.1-37.7,84.1-84.1S135.4,5.1,89,5.1z M108.8,43.8c-0.7-1.1-1.2-2-1.6-2.8c-0.3-0.8-0.5-1.6-0.5-2.3c0-0.7,0.3-1.4,1-2
		c0.7-0.6,1.5-0.9,2.4-0.9c1.1,0,2,0.3,2.6,1c0.6,0.6,1.5,1.9,2.5,3.6l5.9,9.5l6.3-9.5c0.5-0.8,1-1.5,1.3-2.1c0.4-0.6,0.7-1,1.1-1.4
		s0.7-0.7,1.1-0.8c0.4-0.2,0.9-0.3,1.5-0.3c1,0,1.8,0.3,2.4,0.9c0.6,0.6,0.9,1.3,0.9,2.1c0,1.2-0.7,2.8-2.1,4.9l-7.7,11.5l8.3,12.8
		c0.7,1.1,1.3,2,1.6,2.8c0.3,0.7,0.5,1.4,0.5,2.1c0,0.6-0.2,1.2-0.5,1.7c-0.3,0.5-0.7,0.9-1.3,1.2c-0.6,0.3-1.2,0.5-1.9,0.5
		c-0.7,0-1.4-0.2-1.9-0.5c-0.5-0.3-0.9-0.7-1.3-1.2c-0.3-0.5-0.9-1.4-1.8-2.7L121,61.1l-7.3,11.1c-0.6,0.9-1,1.5-1.2,1.9
		c-0.2,0.4-0.5,0.7-0.9,1c-0.3,0.3-0.7,0.6-1.2,0.8c-0.5,0.2-1,0.3-1.6,0.3c-1,0-1.8-0.3-2.4-0.9c-0.6-0.6-0.9-1.4-0.9-2.6
		c0-1.3,0.6-2.9,1.9-4.8l8.7-12.8L108.8,43.8z M78.9,40.6c0.4-1,0.8-1.9,1.3-2.5c0.5-0.7,1-1.2,1.8-1.6c0.7-0.4,1.6-0.6,2.7-0.6
		c1.1,0,2,0.2,2.8,0.6c0.7,0.4,1.3,1,1.8,1.6c0.5,0.7,0.8,1.4,1.1,2.1c0.3,0.8,0.7,1.8,1.2,3l10.2,25.2c0.8,1.9,1.2,3.3,1.2,4.2
		c0,0.9-0.4,1.7-1.1,2.5c-0.8,0.8-1.7,1.1-2.7,1.1c-0.6,0-1.2-0.1-1.6-0.3c-0.4-0.2-0.8-0.5-1.1-0.9c-0.3-0.4-0.6-1-1-1.8
		c-0.3-0.8-0.6-1.5-0.9-2.1l-1.9-4.9H76.8l-1.9,5c-0.7,2-1.4,3.3-1.9,4c-0.5,0.7-1.4,1-2.5,1c-1,0-1.9-0.4-2.6-1.1
		c-0.8-0.7-1.1-1.6-1.1-2.5c0-0.5,0.1-1.1,0.3-1.7c0.2-0.6,0.5-1.4,0.9-2.4l10-25.4C78.2,42.5,78.5,41.6,78.9,40.6z M36.1,37.3
		c0.7-0.6,1.7-0.9,3-0.9h25.2c1.4,0,2.4,0.3,3.1,0.9c0.7,0.6,1,1.4,1,2.4c0,1-0.3,1.8-1,2.4c-0.7,0.6-1.7,0.9-3,0.9h-8.6v28.4
		c0,1.6-0.4,2.8-1.1,3.6c-0.7,0.8-1.7,1.2-2.8,1.2c-1.2,0-2.1-0.4-2.9-1.2c-0.7-0.8-1.1-2-1.1-3.6V43h-8.6c-1.4,0-2.4-0.3-3-0.9
		c-0.7-0.6-1-1.4-1-2.4C35.1,38.7,35.4,37.9,36.1,37.3z M16.8,109.3c0-2.8,3.2-5,7.1-5h82.2c3.9,0,7.1,2.2,7.1,5c0,2.8-3.2,5-7.1,5
		H23.8C20,114.3,16.8,112.1,16.8,109.3z M30.3,131.7c-3.9,0-7.1-2.2-7.1-5c0-2.8,3.2-5,7.1-5h36.3c3.9,0,7.1,2.2,7.1,5
		c0,2.8-3.2,5-7.1,5H30.3z M89,168.6c-10.1,0-18.2-8.2-18.2-18.2c0-10.1,8.2-18.2,18.2-18.2c10.1,0,18.2,8.2,18.2,18.2
		C107.2,160.4,99.1,168.6,89,168.6z M149.4,131.7h-35.5c-3.9,0-7.1-2.2-7.1-5c0-2.8,3.2-5,7.1-5h35.5c3.9,0,7.1,2.2,7.1,5
		C156.5,129.5,153.3,131.7,149.4,131.7z M155.8,114.3h-33.6c-3.9,0-7.1-2.2-7.1-5c0-2.8,3.2-5,7.1-5h33.6c3.9,0,7.1,2.2,7.1,5
		C162.9,112.1,159.7,114.3,155.8,114.3z M163.7,96.9H16c-2.6,0-4.7-1.4-4.7-3.2c0-1.8,2.1-3.2,4.7-3.2h147.7c2.6,0,4.7,1.4,4.7,3.2
		C168.4,95.5,166.3,96.9,163.7,96.9z"/>
</g>
</svg>
