<?xml version="1.0" encoding="utf-8"?>
<!-- Generator: Adobe Illustrator 18.1.1, SVG Export Plug-In . SVG Version: 6.00 Build 0)  -->
<svg version="1.1" id="Layer_1" xmlns="http://www.w3.org/2000/svg" xmlns:xlink="http://www.w3.org/1999/xlink" x="0px" y="0px"
	 width="107.3px" height="18.1px" viewBox="0 0 107.3 18.1" enable-background="new 0 0 107.3 18.1" xml:space="preserve">
<g>
	<path fill="#002B60" d="M102.5,6.5h4V6.3c0-1.6-0.7-2.9-2.1-3.9c-1.4-0.9-3.4-1.4-6-1.4c-2.4,0-4.3,0.5-5.7,1.5
		c-1.4,1-2.1,2.3-2.1,3.9c0,1.3,0.5,2.4,1.5,3.1c1,0.7,2.5,1.2,4.7,1.4l2.9,0.3c1.3,0.1,2.1,0.3,2.6,0.6c0.4,0.3,0.6,0.6,0.6,1.2
		c0,0.6-0.3,1.1-1,1.5c-0.6,0.3-1.6,0.5-2.7,0.5c-1.5,0-2.7-0.2-3.5-0.7c-0.8-0.5-1.2-1.2-1.2-2.1v-0.2h-4.2v0.3
		c0,1.8,0.7,3.2,2.2,4.2c1.5,1,3.5,1.5,6.2,1.5c2.8,0,5-0.5,6.4-1.4c1.5-0.9,2.2-2.3,2.2-4.1c0-1.4-0.5-2.5-1.5-3.3
		c-1-0.8-2.5-1.3-4.6-1.5l-3-0.3c-1.5-0.2-2.4-0.4-2.7-0.6c-0.4-0.2-0.6-0.6-0.6-1c0-0.6,0.3-1.1,0.9-1.4C96.5,4.2,97.4,4,98.5,4
		c1.2,0,2.2,0.2,2.9,0.6C102,5,102.4,5.6,102.5,6.5"/>
	<polygon fill="#002B60" points="82.6,10.8 89.8,1.5 84.6,1.5 80.6,7.3 76.6,1.5 71.4,1.5 78.5,10.8 78.5,17.7 82.6,17.7 	"/>
	<path fill="#002B60" d="M58.6,5.9c0-0.6,0.3-1.1,0.9-1.4C60.2,4.2,61.1,4,62.2,4c1.2,0,2.2,0.2,2.9,0.6c0.7,0.4,1,1,1.1,1.8h4V6.3
		c0-1.6-0.7-2.9-2.1-3.9c-1.4-0.9-3.4-1.4-6-1.4c-2.4,0-4.3,0.5-5.7,1.5c-1.4,1-2.1,2.3-2.1,3.9c0,1.3,0.5,2.4,1.5,3.1
		c1,0.7,2.5,1.2,4.7,1.4l2.9,0.3c1.3,0.1,2.1,0.3,2.6,0.6c0.4,0.3,0.6,0.6,0.6,1.2c0,0.6-0.3,1.1-1,1.5c-0.6,0.3-1.6,0.5-2.7,0.5
		c-1.5,0-2.7-0.2-3.5-0.7c-0.8-0.5-1.2-1.2-1.2-2.1v-0.2h-4.2v0.3c0,1.8,0.7,3.2,2.2,4.2c1.5,1,3.5,1.5,6.2,1.5c2.8,0,5-0.5,6.4-1.4
		c1.5-0.9,2.2-2.3,2.2-4.1c0-1.4-0.5-2.5-1.5-3.3c-1-0.8-2.5-1.3-4.6-1.5l-3-0.3c-1.5-0.2-2.4-0.4-2.7-0.6
		C58.8,6.7,58.6,6.4,58.6,5.9"/>
	<polygon fill="#002B60" points="15.9,17.7 30.4,17.7 30.4,14.3 20,14.3 20,10.8 29.2,10.8 29.2,7.5 20,7.5 20,4.7 30.4,4.7 
		30.4,1.5 15.9,1.5 	"/>
	<polygon fill="#002B60" points="0,17.7 12.4,17.7 12.4,14.3 4.1,14.3 4.1,1.5 0,1.5 	"/>
	<polygon fill="#ED1C24" points="42.8,0 32.5,17.7 36.9,17.7 42.8,7.4 48.6,17.7 53.2,17.7 	"/>
	<g>
		<defs>
			<path id="SVGID_1_" d="M34,15.2c0.1,0,0.3-0.1,0.4-0.1c1.6-0.3,3.1-0.7,4.6-1l3.8-6.7l2.6,4.7c1.3-0.4,2.5-0.9,3.6-1.4L42.8,0
				L34,15.2z"/>
		</defs>
		<clipPath id="SVGID_2_">
			<use xlink:href="#SVGID_1_"  overflow="visible"/>
		</clipPath>
		
			<linearGradient id="SVGID_3_" gradientUnits="userSpaceOnUse" x1="-373.0551" y1="319.7794" x2="-372.753" y2="319.7794" gradientTransform="matrix(-57.2842 -86.383 -86.383 57.2842 6300.1118 -50528.5234)">
			<stop  offset="0" style="stop-color:#FFFFFF"/>
			<stop  offset="5.650000e-03" style="stop-color:#FFFFFF"/>
			<stop  offset="2.480311e-02" style="stop-color:#FEF3F3"/>
			<stop  offset="0.1508" style="stop-color:#F8A7AB"/>
			<stop  offset="0.2634" style="stop-color:#F36C71"/>
			<stop  offset="0.3584" style="stop-color:#EF4047"/>
			<stop  offset="0.4324" style="stop-color:#ED262D"/>
			<stop  offset="0.476" style="stop-color:#EC1C24"/>
			<stop  offset="1" style="stop-color:#EC1C24"/>
		</linearGradient>
		<polygon clip-path="url(#SVGID_2_)" fill="url(#SVGID_3_)" points="38.6,22.1 27.1,4.6 44.5,-6.9 56.1,10.5 		"/>
	</g>
</g>
</svg>
