<?xml version="1.0" encoding="utf-8"?>
<!-- Generator: Adobe Illustrator 21.0.2, SVG Export Plug-In . SVG Version: 6.00 Build 0)  -->
<svg version="1.1" id="Layer_1" xmlns="http://www.w3.org/2000/svg" xmlns:xlink="http://www.w3.org/1999/xlink" x="0px" y="0px"
	 viewBox="0 0 84 84" style="enable-background:new 0 0 84 84;" xml:space="preserve">
<style type="text/css">
	.st0{fill:#254058;}
</style>
<polygon class="st0" points="80.6,42 84,35.3 78.8,30 79.9,22.7 73.3,19.3 72.1,11.9 64.7,10.7 61.3,4.1 54,5.2 48.7,0 42,3.4 
	35.3,0 30,5.2 22.7,4.1 19.3,10.7 11.9,11.9 10.7,19.3 4.1,22.7 5.2,30 0,35.3 3.4,42 0,48.7 5.2,54 4.1,61.3 10.7,64.7 11.9,72.1 
	19.3,73.3 22.7,79.9 30,78.8 35.3,84 42,80.6 48.7,84 54,78.8 61.3,79.9 64.7,73.3 72.1,72.1 73.3,64.7 79.9,61.3 78.8,54 84,48.7 
	"/>
</svg>
