<?xml version="1.0" encoding="utf-8"?>
<!-- Generator: Adobe Illustrator 21.0.2, SVG Export Plug-In . SVG Version: 6.00 Build 0)  -->
<svg version="1.1" xmlns="http://www.w3.org/2000/svg" xmlns:xlink="http://www.w3.org/1999/xlink" x="0px" y="0px"
	 viewBox="0 0 72 72" style="enable-background:new 0 0 72 72;" xml:space="preserve">
<style type="text/css">
	.st0{display:none;}
	.st1{display:inline;fill:#F4F0DE;}
	.st2{display:inline;}
	.st3{fill:#254058;}
	.st4{fill:#F4F0DE;}
</style>
<g id="Layer_1" class="st0">
	<circle class="st1" cx="36" cy="36" r="36"/>
	<polygon class="st2" points="36,32.7 33.6,39.3 38.4,39.3 	"/>
	<g class="st2">
		<circle class="st3" cx="36" cy="36" r="34.1"/>
		<path class="st4" d="M44,17.6c-0.3-0.4-0.5-0.8-0.6-1.1c-0.1-0.3-0.2-0.6-0.2-0.9c0-0.3,0.1-0.6,0.4-0.8c0.3-0.2,0.6-0.4,1-0.4
			s0.8,0.1,1.1,0.4c0.2,0.3,0.6,0.8,1.1,1.5l2.4,3.8l2.5-3.8c0.2-0.3,0.4-0.6,0.5-0.8c0.2-0.2,0.3-0.4,0.4-0.6s0.3-0.3,0.4-0.3
			c0.2-0.1,0.4-0.1,0.6-0.1c0.4,0,0.7,0.1,1,0.4c0.2,0.2,0.4,0.5,0.4,0.8c0,0.5-0.3,1.1-0.8,2L51,22.2l3.4,5.2
			c0.3,0.4,0.5,0.8,0.6,1.1c0.1,0.3,0.2,0.6,0.2,0.8c0,0.2-0.1,0.5-0.2,0.7c-0.1,0.2-0.3,0.4-0.5,0.5s-0.5,0.2-0.8,0.2
			s-0.6-0.1-0.8-0.2s-0.4-0.3-0.5-0.5s-0.4-0.6-0.7-1.1l-2.8-4.4l-3,4.5c-0.2,0.4-0.4,0.6-0.5,0.8s-0.2,0.3-0.4,0.4
			s-0.3,0.2-0.5,0.3c-0.2,0.1-0.4,0.1-0.6,0.1c-0.4,0-0.7-0.1-1-0.4c-0.2-0.2-0.4-0.6-0.4-1.1s0.2-1.2,0.8-1.9l3.6-5.2L44,17.6z"/>
		<path class="st4" d="M31.9,16.3c0.2-0.4,0.3-0.8,0.5-1.1s0.4-0.5,0.7-0.6c0.3-0.2,0.7-0.2,1.1-0.2c0.4,0,0.8,0.1,1.1,0.2
			c0.3,0.2,0.5,0.4,0.7,0.6c0.2,0.3,0.3,0.6,0.4,0.8c0.1,0.3,0.3,0.7,0.5,1.2L41,27.4c0.3,0.8,0.5,1.3,0.5,1.7c0,0.4-0.2,0.7-0.4,1
			c-0.3,0.3-0.7,0.4-1.1,0.4c-0.2,0-0.5,0-0.6-0.1c-0.2-0.1-0.3-0.2-0.4-0.4c-0.1-0.2-0.2-0.4-0.4-0.7c-0.1-0.3-0.2-0.6-0.4-0.8
			l-0.8-2H31l-0.8,2c-0.3,0.8-0.6,1.3-0.8,1.6c-0.2,0.3-0.6,0.4-1,0.4s-0.8-0.2-1.1-0.4c-0.3-0.3-0.4-0.6-0.4-1c0-0.2,0-0.4,0.1-0.7
			c0.1-0.2,0.2-0.6,0.4-1l4-10.3C31.6,17.1,31.8,16.7,31.9,16.3z"/>
		<path class="st4" d="M14.6,15c0.3-0.2,0.7-0.4,1.2-0.4H26c0.6,0,1,0.1,1.3,0.4c0.3,0.2,0.4,0.6,0.4,1s-0.1,0.7-0.4,1
			c-0.3,0.2-0.7,0.4-1.2,0.4h-3.5v11.5c0,0.6-0.2,1.2-0.4,1.5c-0.3,0.3-0.7,0.5-1.1,0.5c-0.5,0-0.8-0.2-1.2-0.5
			c-0.3-0.3-0.4-0.8-0.4-1.5V17.3H16c-0.6,0-1-0.1-1.2-0.4c-0.3-0.2-0.4-0.6-0.4-1C14.2,15.5,14.3,15.2,14.6,15z"/>
		<path class="st4" d="M6.8,44.2c0-1.1,1.3-2,2.9-2H43c1.6,0,2.9,0.9,2.9,2s-1.3,2-2.9,2H9.6C8,46.2,6.8,45.3,6.8,44.2z"/>
		<path class="st4" d="M12.2,53.2c-1.6,0-2.9-0.9-2.9-2s1.3-2,2.9-2h14.7c1.6,0,2.9,0.9,2.9,2s-1.3,2-2.9,2H12.2z"/>
		<circle class="st4" cx="36" cy="60.8" r="7.4"/>
		<path class="st4" d="M60.5,53.2H46.1c-1.6,0-2.9-0.9-2.9-2s1.3-2,2.9-2h14.4c1.6,0,2.9,0.9,2.9,2C63.3,52.3,62.1,53.2,60.5,53.2z"
			/>
		<path class="st4" d="M63.1,46.2H49.5c-1.6,0-2.9-0.9-2.9-2s1.3-2,2.9-2h13.6c1.6,0,2.9,0.9,2.9,2S64.7,46.2,63.1,46.2z"/>
		<path class="st4" d="M66.3,39.2H6.4c-1.1,0-1.9-0.6-1.9-1.3s0.8-1.3,1.9-1.3h59.9c1.1,0,1.9,0.6,1.9,1.3S67.3,39.2,66.3,39.2z"/>
	</g>
</g>
<g id="Layer_2">
	<circle class="st3" cx="36" cy="36" r="34.2"/>
	<path class="st4" d="M36,72C16.1,72,0,55.9,0,36C0,16.1,16.1,0,36,0c19.9,0,36,16.1,36,36C72,55.9,55.9,72,36,72z M34.2,17.7
		l-2.3,6.5h4.7L34.2,17.7z M36,1.9C17.2,1.9,1.9,17.2,1.9,36S17.2,70.1,36,70.1S70.1,54.8,70.1,36S54.8,1.9,36,1.9z M44,17.6
		c-0.3-0.4-0.5-0.8-0.6-1.2c-0.1-0.3-0.2-0.6-0.2-0.9c0-0.3,0.1-0.6,0.4-0.8c0.3-0.2,0.6-0.4,1-0.4c0.4,0,0.8,0.1,1,0.4
		c0.2,0.3,0.6,0.8,1,1.5l2.4,3.8l2.5-3.8c0.2-0.3,0.4-0.6,0.5-0.8c0.1-0.2,0.3-0.4,0.4-0.6c0.1-0.2,0.3-0.3,0.5-0.3
		c0.2-0.1,0.4-0.1,0.6-0.1c0.4,0,0.7,0.1,1,0.4c0.3,0.2,0.4,0.5,0.4,0.9c0,0.5-0.3,1.1-0.8,2L51,22.2l3.4,5.2
		c0.3,0.5,0.5,0.8,0.7,1.1c0.1,0.3,0.2,0.6,0.2,0.8c0,0.3-0.1,0.5-0.2,0.7c-0.1,0.2-0.3,0.4-0.5,0.5c-0.2,0.1-0.5,0.2-0.8,0.2
		c-0.3,0-0.6-0.1-0.8-0.2c-0.2-0.1-0.4-0.3-0.5-0.5c-0.1-0.2-0.4-0.6-0.7-1.1L49,24.6l-3,4.5c-0.2,0.4-0.4,0.6-0.5,0.8
		c-0.1,0.1-0.2,0.3-0.4,0.4c-0.1,0.1-0.3,0.2-0.5,0.3c-0.2,0.1-0.4,0.1-0.7,0.1c-0.4,0-0.7-0.1-1-0.4c-0.3-0.2-0.4-0.6-0.4-1
		c0-0.5,0.3-1.2,0.8-2l3.5-5.2L44,17.6z M31.9,16.3c0.2-0.4,0.3-0.8,0.5-1c0.2-0.3,0.4-0.5,0.7-0.7c0.3-0.2,0.7-0.3,1.1-0.3
		c0.4,0,0.8,0.1,1.1,0.3c0.3,0.2,0.5,0.4,0.7,0.7c0.2,0.3,0.3,0.6,0.5,0.9c0.1,0.3,0.3,0.7,0.5,1.2l4.1,10.2
		c0.3,0.8,0.5,1.3,0.5,1.7c0,0.4-0.2,0.7-0.5,1c-0.3,0.3-0.7,0.5-1.1,0.5c-0.3,0-0.5,0-0.6-0.1c-0.2-0.1-0.3-0.2-0.5-0.4
		c-0.1-0.2-0.3-0.4-0.4-0.7c-0.1-0.3-0.3-0.6-0.4-0.8l-0.8-2h-6.4l-0.8,2c-0.3,0.8-0.5,1.3-0.8,1.6c-0.2,0.3-0.6,0.4-1,0.4
		c-0.4,0-0.8-0.1-1.1-0.4c-0.3-0.3-0.5-0.6-0.5-1c0-0.2,0-0.4,0.1-0.7c0.1-0.2,0.2-0.6,0.4-1l4.1-10.3
		C31.6,17.1,31.7,16.7,31.9,16.3z M14.6,15c0.3-0.2,0.7-0.4,1.2-0.4H26c0.6,0,1,0.1,1.2,0.4c0.3,0.2,0.4,0.6,0.4,1
		c0,0.4-0.1,0.7-0.4,1c-0.3,0.2-0.7,0.4-1.2,0.4h-3.5v11.5c0,0.7-0.1,1.2-0.4,1.5c-0.3,0.3-0.7,0.5-1.1,0.5c-0.5,0-0.9-0.2-1.2-0.5
		c-0.3-0.3-0.4-0.8-0.4-1.5V17.3h-3.5c-0.5,0-1-0.1-1.2-0.4c-0.3-0.2-0.4-0.6-0.4-1C14.1,15.5,14.3,15.2,14.6,15z M6.7,44.2
		c0-1.1,1.3-2,2.9-2h33.3c1.6,0,2.9,0.9,2.9,2c0,1.1-1.3,2-2.9,2H9.6C8,46.2,6.7,45.3,6.7,44.2z M12.2,53.2c-1.6,0-2.9-0.9-2.9-2
		s1.3-2,2.9-2h14.7c1.6,0,2.9,0.9,2.9,2s-1.3,2-2.9,2H12.2z M36,68.2c-4.1,0-7.4-3.3-7.4-7.4c0-4.1,3.3-7.4,7.4-7.4
		c4.1,0,7.4,3.3,7.4,7.4C43.4,64.9,40.1,68.2,36,68.2z M60.5,53.2H46.1c-1.6,0-2.9-0.9-2.9-2s1.3-2,2.9-2h14.4c1.6,0,2.9,0.9,2.9,2
		S62.1,53.2,60.5,53.2z M63.1,46.2H49.5c-1.6,0-2.9-0.9-2.9-2c0-1.1,1.3-2,2.9-2h13.6c1.6,0,2.9,0.9,2.9,2
		C66,45.3,64.7,46.2,63.1,46.2z M66.3,39.1H6.4c-1.1,0-1.9-0.6-1.9-1.3c0-0.7,0.9-1.3,1.9-1.3h59.9c1.1,0,1.9,0.6,1.9,1.3
		C68.2,38.6,67.3,39.1,66.3,39.1z"/>
</g>
</svg>
